# xmcd
#
# Track frame offsets:
# 200
# 12025
# 22260
# 33865
# 46685
# 58010
# 70470
# 83140
# 96695
# 108557
# 121507
# 134775
# 144730
# 155987
#
# Disc length: 2215 seconds
#
#
# Revision: 1
# Processed by: cddbd v1.4PL0 Copyright (c) Steve Scherf et al.
# Submitted via: FreeRIP 2.30 
#
DISCID=ca08a50e
DTITLE=John Lee Hooker - Blues Time
DYEAR=1900
DGENRE=Blues
TTITLE0=Boggie Chillun
TTITLE1=Dimples
TTITLE2=Boom Boom
TTITLE3=Frisco
TTITLE4=No Shoes
TTITLE5=I'm in the Mood
TTITLE6=Hobo Blues
TTITLE7=Trouble Blues
TTITLE8=Little Wheel
TTITLE9=Whiskey and Women
TTITLE10=I'm So Excited
TTITLE11=Onions
TTITLE12=This Is Hip
TTITLE13=Big Legs, Tight Skirt
EXTD=
EXTT0=
EXTT1=
EXTT2=
EXTT3=
EXTT4=
EXTT5=
EXTT6=
EXTT7=
EXTT8=
EXTT9=
EXTT10=
EXTT11=
EXTT12=
EXTT13=
PLAYORDER=
